<svg width="80" height="79" viewBox="0 0 80 79" fill="none" xmlns="http://www.w3.org/2000/svg">
<circle cx="44.5" cy="43.5" r="35.5" fill="white"/>
<circle cx="14" cy="14" r="14" fill="#4BA7FC"/>
<path d="M13.526 20.252C12.578 20.252 11.756 20.066 11.06 19.694C10.376 19.31 9.848 18.812 9.476 18.2C9.116 17.588 8.936 16.922 8.936 16.202H11.492C11.492 16.814 11.702 17.288 12.122 17.624C12.542 17.948 13.04 18.11 13.616 18.11C14.192 18.11 14.66 17.96 15.02 17.66C15.392 17.36 15.578 16.916 15.578 16.328C15.578 15.728 15.338 15.254 14.858 14.906C14.39 14.558 13.712 14.384 12.824 14.384V12.62C13.568 12.62 14.15 12.44 14.57 12.08C15.002 11.708 15.218 11.276 15.218 10.784C15.218 10.352 15.086 9.998 14.822 9.722C14.57 9.446 14.18 9.308 13.652 9.308C13.148 9.308 12.722 9.464 12.374 9.776C12.038 10.076 11.87 10.46 11.87 10.928H9.476C9.476 10.208 9.65 9.566 9.998 9.002C10.346 8.438 10.832 7.994 11.456 7.67C12.092 7.346 12.824 7.184 13.652 7.184C14.528 7.184 15.272 7.34 15.884 7.652C16.508 7.964 16.982 8.384 17.306 8.912C17.63 9.428 17.792 10.004 17.792 10.64C17.792 11.288 17.594 11.846 17.198 12.314C16.802 12.77 16.268 13.13 15.596 13.394C16.376 13.646 16.994 14.036 17.45 14.564C17.918 15.08 18.152 15.758 18.152 16.598C18.152 17.318 17.96 17.954 17.576 18.506C17.204 19.058 16.67 19.49 15.974 19.802C15.29 20.102 14.474 20.252 13.526 20.252Z" fill="white"/>
<path d="M24 62.7187C24.5102 61.4588 25.0204 60.1938 25.5305 58.934C25.7193 58.4609 25.903 57.9878 26.0867 57.5147C26.1658 57.278 26.3202 57.0741 26.5258 56.9347C26.7315 56.7953 26.977 56.728 27.2243 56.7434H29.5151C29.5865 56.2291 29.663 55.7663 29.7293 55.2829C30.2191 51.6628 30.7089 48.041 31.1986 44.4174C31.4792 42.3605 31.7088 40.3035 32.0762 38.2981C32.3656 36.8724 33.1312 35.5899 34.2453 34.6644C35.3594 33.7389 36.7547 33.2263 38.1984 33.2123C42.3614 33.1815 46.5228 33.1815 50.6825 33.2123C52.1974 33.2444 53.6517 33.8179 54.7861 34.8303C55.9205 35.8428 56.6612 37.2285 56.8761 38.7403C57.5563 43.6289 58.2229 48.5226 58.876 53.4214C59.0086 54.4139 59.1464 55.4115 59.2841 56.404C59.3032 56.5206 59.3305 56.6358 59.3658 56.7485H61.5136C61.8022 56.7057 62.0963 56.7732 62.338 56.9379C62.5796 57.1025 62.7515 57.3523 62.8197 57.6381C63.4489 59.2254 64.073 60.816 64.6921 62.4102C65.09 63.4386 64.5951 64.1636 63.488 64.1636C50.7777 64.1636 38.0691 64.1636 25.3622 64.1636C25.0692 64.1895 24.7761 64.1154 24.53 63.9531C24.2838 63.7908 24.099 63.5498 24.0051 63.2689L24 62.7187ZM57.0138 56.7228C57.019 56.6372 57.019 56.5513 57.0138 56.4657L56.5037 52.8661C55.8982 48.4095 55.2928 43.9408 54.6874 39.4602C54.3507 36.9559 52.6875 35.4544 50.1825 35.4544H44.0246C42.1522 35.4544 40.2799 35.4544 38.4126 35.4544C37.4118 35.4412 36.4396 35.7906 35.6728 36.4389C34.9059 37.0872 34.3955 37.9915 34.2342 38.9871C33.9434 40.9463 33.6934 42.9107 33.4281 44.875C33.0166 47.9192 32.6016 50.9669 32.1833 54.018C32.066 54.9076 31.9486 55.792 31.8262 56.7022L57.0138 56.7228ZM62.0289 61.8651C61.7024 61.032 61.381 60.2709 61.1106 59.4945C61.0808 59.3428 60.9942 59.2085 60.8688 59.1195C60.7435 59.0305 60.5888 58.9935 60.4371 59.0162C52.9545 59.0162 45.482 59.0162 38.0198 59.0162C34.8413 59.0162 31.668 59.0162 28.4896 59.0162C28.0712 59.0162 27.8519 59.1088 27.7192 59.5305C27.5151 60.1784 27.209 60.8058 26.9845 61.4383C26.9335 61.5668 26.8927 61.7005 26.8417 61.8651H62.0289Z" fill="#141527"/>
<path d="M44.7441 23C45.0281 23.1326 45.2615 23.355 45.4089 23.6334C45.5562 23.9118 45.6094 24.231 45.5604 24.5426C45.5196 25.5453 45.5604 26.548 45.5604 27.5508C45.5754 27.7091 45.5573 27.8688 45.5075 28.0197C45.4576 28.1706 45.377 28.3093 45.2709 28.427C45.1647 28.5446 45.0353 28.6387 44.891 28.703C44.7467 28.7673 44.5907 28.8005 44.4329 28.8005C44.2751 28.8005 44.119 28.7673 43.9747 28.703C43.8304 28.6387 43.701 28.5446 43.5949 28.427C43.4887 28.3093 43.4082 28.1706 43.3583 28.0197C43.3084 27.8688 43.2904 27.7091 43.3054 27.5508C43.3054 26.5223 43.336 25.5453 43.3054 24.5426C43.2559 24.2303 43.3095 23.9103 43.4579 23.6317C43.6063 23.353 43.8412 23.1311 44.1268 23H44.7441Z" fill="#141527"/>
<path d="M34.3209 25.3241C34.484 25.3395 34.641 25.3943 34.7787 25.4838C34.9163 25.5733 35.0306 25.6949 35.1117 25.8383C35.7444 26.8667 36.3821 27.8952 36.9892 28.9596C37.1303 29.216 37.1676 29.5176 37.0933 29.8011C37.0189 30.0846 36.8388 30.3282 36.5904 30.4809C36.342 30.6337 36.0447 30.6837 35.7605 30.6206C35.4764 30.5575 35.2275 30.3861 35.0658 30.1423C34.423 29.1139 33.7904 28.0854 33.1883 27.021C32.7343 26.2342 33.2904 25.3138 34.3209 25.3241Z" fill="#141527"/>
<path d="M54.7128 25.324C54.9 25.3235 55.0842 25.3712 55.2479 25.4627C55.4115 25.5542 55.5493 25.6863 55.648 25.8466C55.7467 26.0069 55.803 26.19 55.8117 26.3785C55.8204 26.5669 55.781 26.7545 55.6974 26.9233C55.0801 28.0546 54.3965 29.155 53.6975 30.2452C53.5395 30.4738 53.2995 30.6317 53.0283 30.6854C52.757 30.7391 52.4756 30.6846 52.2435 30.5332C51.9958 30.3942 51.8119 30.1631 51.7309 29.8893C51.6499 29.6155 51.6782 29.3207 51.8098 29.0676C52.4425 27.9569 53.0955 26.8564 53.7995 25.7868C53.973 25.5246 54.3608 25.4063 54.6516 25.2263L54.7128 25.324Z" fill="#141527"/>
<path d="M42.744 39.6455H46.0959C46.2285 42.7668 45.7336 45.8161 45.5857 48.958H43.2899C43.1011 45.8676 42.6267 42.7977 42.744 39.6455Z" fill="#141527"/>
<path d="M44.4376 50.3154C44.7713 50.3175 45.0967 50.4194 45.3728 50.6082C45.6488 50.7971 45.863 51.0644 45.988 51.3761C46.1131 51.6879 46.1435 52.03 46.0753 52.3592C46.0071 52.6884 45.8434 52.9897 45.605 53.2249C45.3666 53.4602 45.0642 53.6187 44.7362 53.6804C44.4083 53.7421 44.0695 53.7042 43.763 53.5716C43.4564 53.4389 43.1959 53.2174 43.0144 52.9352C42.833 52.653 42.7388 52.3228 42.7438 51.9866C42.7452 51.7645 42.7902 51.5448 42.8762 51.3403C42.9622 51.1358 43.0876 50.9505 43.2451 50.7951C43.4026 50.6397 43.5891 50.5173 43.7938 50.435C43.9984 50.3526 44.2173 50.312 44.4376 50.3154Z" fill="#141527"/>
</svg>
