<svg width="80" height="79" viewBox="0 0 80 79" fill="none" xmlns="http://www.w3.org/2000/svg">
<circle cx="44.5" cy="43.5" r="35.5" fill="white"/>
<circle cx="14" cy="14" r="14" fill="#4BA7FC"/>
<path d="M8.36 20L14.084 14.024C14.564 13.52 14.936 13.052 15.2 12.62C15.464 12.188 15.596 11.72 15.596 11.216C15.596 10.76 15.434 10.352 15.11 9.992C14.786 9.62 14.306 9.434 13.67 9.434C13.022 9.434 12.506 9.668 12.122 10.136C11.75 10.604 11.564 11.216 11.564 11.972H9.008C9.008 11.072 9.188 10.262 9.548 9.542C9.908 8.81 10.442 8.234 11.15 7.814C11.858 7.382 12.722 7.166 13.742 7.166C14.498 7.166 15.158 7.286 15.722 7.526C16.298 7.754 16.772 8.06 17.144 8.444C17.528 8.816 17.81 9.23 17.99 9.686C18.182 10.142 18.278 10.598 18.278 11.054C18.278 11.714 18.11 12.344 17.774 12.944C17.45 13.532 17.024 14.066 16.496 14.546L13.256 17.624H18.512V20H8.36Z" fill="white"/>
<path d="M66.7197 34.8466C66.4903 35.3876 66.2083 35.9044 65.8779 36.3893C65.6074 36.6995 65.2699 36.9429 64.8912 37.1007C64.5126 37.2586 64.1031 37.3265 63.6943 37.2994H62.8576C62.8576 37.4846 62.8321 37.6543 62.827 37.8137C62.827 39.4592 62.8525 41.0996 62.827 42.7399C62.6704 47.6314 60.6074 52.2636 57.0852 55.6323C53.563 59.001 48.8654 60.8347 44.0108 60.736C39.1563 60.6372 34.536 58.6139 31.1515 55.1046C27.7671 51.5954 25.8912 46.8831 25.9307 41.9892C25.9307 40.5957 25.9307 39.2021 25.9307 37.8086V37.2943H24.9358C24.1753 37.304 23.4419 37.0097 22.896 36.4758C22.3501 35.942 22.0361 35.212 22.0227 34.4455C21.9717 32.4863 22.0227 33.0057 22.0227 31.0413C22.0158 30.9022 22.0383 30.7632 22.0888 30.6336C22.1393 30.5039 22.2165 30.3866 22.3154 30.2893C22.4144 30.192 22.5326 30.1171 22.6625 30.0694C22.7923 30.0218 22.9308 30.0025 23.0686 30.0129H23.3747C37.374 30.0129 51.3717 30.0129 65.3677 30.0129C65.6401 29.9741 65.9178 30.0234 66.1607 30.1537C66.4036 30.2839 66.5993 30.4885 66.7197 30.738V34.8466ZM27.854 37.3457C27.854 38.8267 27.854 40.2665 27.854 41.7012C27.8032 44.0079 28.2163 46.3012 29.0683 48.4427C30.3295 51.6085 32.5323 54.303 35.3741 56.1561C38.7128 58.3522 42.7284 59.2534 46.6762 58.6927C50.6239 58.132 54.236 56.1473 56.8425 53.1067C59.1077 50.5491 60.4865 47.3185 60.7709 43.9021C60.9444 41.7886 60.8577 39.6546 60.8832 37.5309C60.8773 37.4681 60.8653 37.4061 60.8475 37.3457H27.854ZM23.9512 31.9824V34.0393C23.9512 35.0317 24.2981 35.3762 25.2981 35.3762C27.3949 35.3762 29.4867 35.3762 31.5835 35.3762H63.4443C64.4391 35.3762 64.781 35.0317 64.781 34.029C64.781 32.6663 64.781 33.7924 64.781 32.4298V31.9927L23.9512 31.9824Z" fill="#141527"/>
<path d="M44.3225 56.9126C42.5875 56.903 40.8945 56.3735 39.4589 55.3912C38.0234 54.409 36.9102 53.0186 36.2609 51.3968C35.6117 49.775 35.4559 47.9952 35.8132 46.2839C36.1705 44.5726 37.0248 43.0071 38.2674 41.7866C39.5101 40.5661 41.0849 39.7458 42.7914 39.43C44.498 39.1143 46.2591 39.3174 47.8508 40.0134C49.4425 40.7095 50.7928 41.8671 51.7299 43.339C52.6669 44.8108 53.1483 46.5303 53.1129 48.2788C53.0595 50.5909 52.1093 52.7898 50.4659 54.4039C48.8226 56.0179 46.6171 56.9186 44.3225 56.9126ZM44.3633 54.938C45.7072 54.939 47.0211 54.5384 48.1391 53.7868C49.2571 53.0353 50.1289 51.9665 50.6443 50.7156C51.1597 49.4647 51.2956 48.0879 51.0348 46.7592C50.774 45.4305 50.1282 44.2095 49.179 43.2507C48.2299 42.2918 47.02 41.6382 45.7023 41.3723C44.3846 41.1064 43.0183 41.2403 41.7761 41.757C40.5339 42.2737 39.4716 43.15 38.7234 44.2752C37.9752 45.4003 37.5748 46.7238 37.5728 48.0782C37.5728 49.8931 38.2863 51.634 39.5572 52.9197C40.828 54.2054 42.5525 54.9312 44.3531 54.938H44.3633Z" fill="#141527"/>
<path d="M56.0569 41.2537C56.1835 41.2544 56.3088 41.2802 56.4255 41.3297C56.5423 41.3791 56.6482 41.4513 56.7372 41.542C56.8263 41.6327 56.8968 41.7402 56.9446 41.8584C56.9924 41.9765 57.0167 42.103 57.016 42.2306C57.0007 42.4788 56.8966 42.713 56.723 42.8898C56.5495 43.0665 56.3183 43.174 56.0722 43.1921C55.8168 43.1909 55.572 43.0891 55.39 42.9085C55.208 42.7279 55.1031 42.4829 55.0978 42.2255C55.0957 42.0978 55.1191 41.9709 55.1665 41.8524C55.2139 41.7339 55.2844 41.6262 55.3738 41.5356C55.4632 41.445 55.5697 41.3734 55.687 41.325C55.8044 41.2766 55.9301 41.2523 56.0569 41.2537Z" fill="#141527"/>
<path d="M44.3482 52.9839C43.3891 52.9778 42.4533 52.6853 41.659 52.1433C40.8648 51.6013 40.2477 50.8343 39.8858 49.939C39.5238 49.0437 39.4333 48.0603 39.6256 47.1132C39.8179 46.166 40.2844 45.2976 40.9662 44.6176C41.648 43.9376 42.5144 43.4765 43.4561 43.2926C44.3977 43.1088 45.3723 43.2103 46.2567 43.5845C47.1412 43.9587 47.8957 44.5887 48.425 45.3949C48.9543 46.2011 49.2347 47.1474 49.2307 48.1142C49.2199 49.4112 48.7004 50.6513 47.7857 51.5637C46.8709 52.4761 45.6352 52.9866 44.3482 52.9839ZM41.4657 48.145C41.4769 48.7225 41.6573 49.2837 41.9843 49.758C42.3113 50.2323 42.7702 50.5984 43.3033 50.8103C43.8364 51.0222 44.4198 51.0703 44.9799 50.9485C45.5401 50.8268 46.052 50.5407 46.4511 50.1262C46.8502 49.7118 47.1187 49.1876 47.2228 48.6196C47.3268 48.0517 47.2618 47.4654 47.0358 46.9346C46.8099 46.4038 46.4331 45.9523 45.9531 45.6369C45.473 45.3216 44.9111 45.1565 44.3381 45.1625C43.565 45.1747 42.8283 45.4956 42.2897 46.0548C41.7512 46.614 41.4548 47.3658 41.4657 48.145Z" fill="#141527"/>
</svg>
