<svg width="80" height="79" viewBox="0 0 80 79" fill="none" xmlns="http://www.w3.org/2000/svg">
<circle cx="44.5" cy="43.5" r="35.5" fill="white"/>
<path d="M25 45.8863L25.9484 43.6218C26.0137 43.4195 26.1181 43.2322 26.2555 43.0707C26.393 42.9092 26.5607 42.7767 26.7491 42.6807C26.9375 42.5848 27.1429 42.5274 27.3534 42.5117C27.5639 42.496 27.7754 42.5224 27.9758 42.5895C28.3678 42.6914 28.8188 42.9421 29.1476 42.8486C29.4763 42.7551 29.7208 42.3091 29.9906 42.0244C30.154 41.8374 30.3363 41.668 30.5343 41.5188C30.6142 41.4807 30.6854 41.4264 30.7436 41.3594C30.8018 41.2924 30.8457 41.214 30.8725 41.1291C30.8994 41.0443 30.9087 40.9547 30.8998 40.8661C30.8909 40.7775 30.8641 40.6916 30.8209 40.6139C30.7239 40.3378 30.652 40.0534 30.606 39.7642C30.5082 39.3998 30.5439 39.0121 30.7064 38.672C30.8689 38.3319 31.1475 38.0621 31.4911 37.9119C32.2119 37.589 32.9453 37.2831 33.6829 36.9985C34.0313 36.8589 34.4178 36.8494 34.7725 36.9717C35.1273 37.094 35.427 37.3401 35.6176 37.6655C35.8621 38.0564 36.0054 38.6044 36.3552 38.7998C36.7051 38.9953 37.253 38.7574 37.6914 38.8423C38.5681 39.008 39.0402 38.6724 39.4237 37.8822C39.9043 36.8795 40.6882 36.6714 41.7251 37.1047C42.3279 37.3554 42.9348 37.5975 43.5376 37.8609C43.927 37.9991 44.2474 38.2854 44.4301 38.6585C44.6128 39.0317 44.6435 39.4621 44.5155 39.8577C44.4312 40.2103 44.3258 40.5544 44.2626 40.9113C44.2556 40.9778 44.2625 41.045 44.2828 41.1087C44.3032 41.1723 44.3365 41.231 44.3806 41.2809C44.84 41.7653 45.3079 42.2411 45.7926 42.6999C45.8506 42.7483 45.9184 42.7833 45.9912 42.8023C46.064 42.8214 46.1401 42.8242 46.2141 42.8104C46.5893 42.7424 46.956 42.6234 47.3269 42.5385C47.6835 42.4445 48.0616 42.4807 48.3941 42.641C48.7267 42.8012 48.9922 43.0749 49.1435 43.4137C49.4779 44.1501 49.787 44.8963 50.0708 45.6526C50.206 45.9983 50.2149 46.3811 50.096 46.7328C49.9771 47.0845 49.7382 47.3822 49.4217 47.5729C49.1014 47.781 48.7726 47.9977 48.4312 48.1634C48.3506 48.1965 48.2843 48.2574 48.2441 48.3352C48.204 48.4131 48.1926 48.5027 48.212 48.5883C48.212 49.2468 48.212 49.9053 48.212 50.5638C48.2178 50.636 48.2379 50.7064 48.2712 50.7706C48.3045 50.8348 48.3503 50.8916 48.4059 50.9376C48.7178 51.1585 49.0635 51.3327 49.388 51.5367C49.7169 51.7304 49.9646 52.0381 50.0849 52.4024C50.2051 52.7668 50.1896 53.1628 50.0413 53.5164C49.7674 54.2259 49.4765 54.9227 49.1983 55.6407C49.055 56.0106 48.7798 56.3133 48.4266 56.4894C48.0733 56.6654 47.6676 56.7021 47.2889 56.5923C46.9307 56.5073 46.5766 56.3926 46.2099 56.3246C46.1438 56.3152 46.0764 56.3193 46.0119 56.3368C45.9475 56.3544 45.8872 56.3849 45.8348 56.4266C45.343 56.8996 44.8625 57.3839 44.3932 57.8796C44.3515 57.9314 44.321 57.9914 44.3036 58.0558C44.2861 58.1201 44.2822 58.1875 44.2921 58.2535C44.3553 58.6061 44.4607 58.9502 44.545 59.3028C44.6663 59.694 44.6337 60.1173 44.4541 60.485C44.2744 60.8527 43.9614 61.1368 43.5797 61.2783C42.8126 61.614 42.037 61.9326 41.2657 62.2555H40.5955C40.3148 62.1631 40.0568 62.0116 39.8388 61.8108C39.6207 61.6101 39.4476 61.3649 39.331 61.0914C39.2299 60.8832 39.0823 60.6921 38.977 60.4796C38.8716 60.2672 38.762 60.263 38.5555 60.2757C37.9946 60.3279 37.4303 60.3279 36.8695 60.2757C36.7003 60.2327 36.5212 60.2562 36.3685 60.3414C36.2159 60.4266 36.1011 60.5671 36.0475 60.7345C35.7145 61.393 35.352 62.0346 34.5638 62.2427H33.8937L31.5881 61.2656C31.2138 61.1241 30.9062 60.8458 30.7266 60.4859C30.5469 60.1261 30.5084 59.7113 30.6186 59.3241C30.6795 59.037 30.7555 58.7534 30.8462 58.4744C30.881 58.4064 30.9021 58.3322 30.9082 58.2559C30.9143 58.1797 30.9053 58.103 30.8818 58.0302C30.8583 57.9575 30.8207 57.8902 30.7712 57.8323C30.7216 57.7743 30.6612 57.7269 30.5933 57.6927C30.3771 57.5294 30.1767 57.3459 29.9948 57.1446C29.7082 56.86 29.4721 56.4139 29.1518 56.3204C28.8314 56.227 28.3762 56.4818 27.98 56.5753C27.7799 56.6424 27.5687 56.669 27.3584 56.6537C27.148 56.6383 26.9428 56.5812 26.7545 56.4856C26.5661 56.3901 26.3983 56.258 26.2607 56.097C26.1231 55.936 26.0184 55.7491 25.9526 55.5472L25.0042 53.2955V52.62C25.0926 52.3361 25.2413 52.0749 25.4401 51.8548C25.6388 51.6347 25.8827 51.4609 26.1549 51.3455C26.3657 51.2435 26.5553 51.0991 26.7619 50.9886C26.8428 50.9562 26.9093 50.8952 26.9488 50.817C26.9884 50.7389 26.9984 50.6488 26.9768 50.5638C26.927 49.9984 26.927 49.4297 26.9768 48.8644C27.0135 48.6997 26.9881 48.5271 26.9055 48.3803C26.8229 48.2334 26.6891 48.1228 26.53 48.0699C25.8809 47.7343 25.2318 47.3817 25.0169 46.5872L25 45.8863ZM40.9538 38.6639C40.7093 39.0887 40.4901 39.4753 40.2541 39.8535C40.0946 40.1226 39.8614 40.3395 39.5824 40.4781C39.3035 40.6168 38.9908 40.6713 38.6819 40.6352C37.98 40.5948 37.2763 40.5948 36.5744 40.6352C36.238 40.6834 35.8951 40.6281 35.5905 40.4764C35.2859 40.3248 35.0338 40.084 34.8673 39.7855C34.6566 39.4244 34.4458 39.0675 34.2224 38.6936L32.292 39.4499C32.4058 39.8747 32.5196 40.2995 32.6165 40.7244C32.7017 41.0264 32.6998 41.3467 32.6109 41.6476C32.5221 41.9486 32.3501 42.2178 32.1149 42.4238C31.5585 42.9506 31.0148 43.4944 30.4921 44.0552C30.2892 44.2942 30.0224 44.4693 29.7235 44.5597C29.4245 44.6501 29.1061 44.6519 28.8061 44.565C28.3846 44.4673 27.9631 44.3526 27.5416 44.2379C27.2887 44.8454 27.0359 45.4359 26.8082 46.0392C26.7829 46.1029 26.8799 46.2559 26.96 46.3111C27.2803 46.5193 27.6175 46.6977 27.9421 46.9059C28.2052 47.0718 28.4161 47.3096 28.5504 47.5916C28.6847 47.8737 28.7369 48.1883 28.7008 48.499C28.6713 49.2043 28.6671 49.9138 28.7008 50.6232C28.7402 50.9461 28.6855 51.2735 28.5433 51.5655C28.401 51.8575 28.1775 52.1014 27.8999 52.2674C27.5838 52.4628 27.255 52.6413 26.9473 52.8452C26.8715 52.8919 26.7829 53.0321 26.804 53.0873C27.0358 53.6991 27.293 54.2982 27.5416 54.9057C27.9631 54.7995 28.3298 54.7145 28.6966 54.6083C29.0326 54.4919 29.3966 54.4855 29.7365 54.5901C30.0763 54.6946 30.3747 54.9047 30.5891 55.1903C31.0397 55.7012 31.5211 56.1836 32.0306 56.6348C32.3057 56.8497 32.5081 57.1451 32.61 57.4806C32.7119 57.816 32.7083 58.1751 32.5997 58.5084C32.4943 58.8992 32.4016 59.2943 32.3046 59.6979L34.2351 60.4966C34.4711 60.093 34.6861 59.7192 34.9095 59.3496C35.0745 59.0623 35.3204 58.831 35.6161 58.685C35.9118 58.539 36.2439 58.4849 36.5702 58.5296C37.2482 58.5699 37.928 58.5699 38.606 58.5296C38.9391 58.4859 39.2775 58.5434 39.5779 58.6948C39.8782 58.8461 40.1269 59.0845 40.292 59.3793C40.4775 59.6894 40.6461 60.0038 40.8442 60.3055C40.8906 60.3819 41.0297 60.4711 41.0887 60.4499C41.6914 60.212 42.2899 59.9571 42.8927 59.7064C42.7831 59.2816 42.6904 58.8907 42.5892 58.5084C42.4829 58.1744 42.4818 57.8154 42.5859 57.4807C42.69 57.146 42.8944 56.852 43.1709 56.6391C43.681 56.19 44.1612 55.7074 44.6082 55.1946C44.8206 54.9149 45.114 54.7087 45.4477 54.6044C45.7815 54.5002 46.1391 54.503 46.4712 54.6125C46.859 54.7187 47.251 54.8122 47.6556 54.9099L48.4523 52.9726C48.0308 52.7347 47.6641 52.5096 47.2889 52.2759C47.0153 52.1159 46.7943 51.8784 46.6534 51.5929C46.5125 51.3074 46.458 50.9865 46.4965 50.67C46.5429 49.9868 46.5429 49.3012 46.4965 48.618C46.4354 48.2531 46.4941 47.878 46.6638 47.5498C46.8334 47.2216 47.1047 46.9582 47.4365 46.7996C47.7779 46.6085 48.1066 46.4003 48.4481 46.2006C48.1657 45.5251 47.9085 44.8964 47.643 44.2591C47.192 44.3738 46.7789 44.4843 46.3785 44.5862C46.0752 44.6656 45.7558 44.6566 45.4574 44.5603C45.1589 44.4641 44.8937 44.2845 44.6925 44.0424C44.1993 43.5029 43.6851 42.9803 43.1498 42.4875C42.8984 42.2828 42.7121 42.0082 42.614 41.6979C42.5159 41.3875 42.5102 41.055 42.5976 40.7414L42.918 39.4668L40.9538 38.6639Z" fill="#141527"/>
<path d="M63.0024 34.8312C62.9034 35.169 62.6945 35.4634 62.4093 35.6668C62.124 35.8703 61.7792 35.9711 61.4302 35.9528C61.0972 35.9528 60.9539 36.1185 60.7979 36.4286C60.4481 37.1339 60.3343 37.7032 60.9497 38.3702C61.3459 38.795 61.211 39.5003 60.7979 39.9463C60.3849 40.3924 59.976 40.796 59.5334 41.2209C59.3067 41.4501 59.002 41.5838 58.681 41.5949C58.3601 41.6059 58.047 41.4935 57.8053 41.2804C57.6177 41.0885 57.3717 40.9654 57.1067 40.9308C56.8416 40.8961 56.5727 40.9519 56.3427 41.0892C56.1021 41.1557 55.8895 41.2996 55.7374 41.499C55.5853 41.6983 55.5018 41.9423 55.4997 42.1938C55.4918 42.3693 55.4488 42.5415 55.3733 42.6999C55.2978 42.8583 55.1912 42.9996 55.0601 43.1155C54.929 43.2314 54.7761 43.3193 54.6104 43.3741C54.4447 43.4289 54.2698 43.4494 54.0961 43.4343H52.5703C52.4028 43.4494 52.234 43.4307 52.0737 43.3792C51.9135 43.3278 51.7651 43.2446 51.6371 43.1346C51.5092 43.0247 51.4043 42.8901 51.3286 42.7387C51.2528 42.5874 51.2078 42.4223 51.1962 42.2532C51.1953 41.9774 51.1026 41.7098 50.933 41.4934C50.7633 41.2769 50.5265 41.1241 50.2604 41.0594C50.0548 40.9385 49.8154 40.8892 49.5793 40.9192C49.3431 40.9491 49.1233 41.0566 48.9538 41.2251C48.8225 41.3504 48.6671 41.4472 48.4972 41.5096C48.3273 41.572 48.1465 41.5986 47.966 41.5879C47.7855 41.5771 47.6091 41.5292 47.4477 41.4471C47.2863 41.365 47.1433 41.2504 47.0275 41.1104C46.665 40.7535 46.3025 40.3967 45.9527 40.0271C45.8248 39.9159 45.7204 39.7801 45.6455 39.6275C45.5705 39.475 45.5267 39.3089 45.5165 39.1391C45.5062 38.9692 45.5299 38.799 45.586 38.6385C45.6421 38.478 45.7295 38.3304 45.8431 38.2045C45.9919 38.0064 46.0878 37.7733 46.1216 37.5272C46.1555 37.2812 46.1262 37.0305 46.0366 36.7991C45.947 36.5677 45.8 36.3633 45.6097 36.2055C45.4194 36.0477 45.1921 35.9417 44.9495 35.8976C44.1065 35.8254 43.685 35.2816 43.685 34.4319C43.685 33.9221 43.685 33.4123 43.685 32.9024C43.6731 32.568 43.7895 32.2419 44.0102 31.9918C44.2308 31.7417 44.5386 31.587 44.8695 31.5599C45.1218 31.5315 45.3621 31.4356 45.5653 31.2821C45.7686 31.1286 45.9274 30.9232 46.0254 30.6871C46.1234 30.4509 46.157 30.1927 46.1228 29.939C46.0885 29.6854 45.9876 29.4456 45.8305 29.2445C45.6074 28.9866 45.4946 28.6502 45.5167 28.3087C45.5388 27.9673 45.6941 27.6485 45.9485 27.422C46.311 27.0438 46.6777 26.6742 47.0528 26.3131C47.1625 26.1788 47.2982 26.0686 47.4517 25.9892C47.6052 25.9097 47.7731 25.8628 47.9453 25.8513C48.1174 25.8397 48.2901 25.8638 48.4527 25.9221C48.6152 25.9803 48.7642 26.0714 48.8906 26.1899C49.3669 26.6147 49.7336 26.6148 50.3194 26.3641C50.5584 26.3002 50.77 26.1594 50.9222 25.963C51.0744 25.7667 51.1588 25.5256 51.1624 25.2765C51.2383 24.4268 51.7863 24.002 52.6251 24.002H54.1087C54.4472 23.9832 54.7795 24.0991 55.0341 24.3248C55.2887 24.5504 55.4453 24.8677 55.4702 25.2085C55.466 25.475 55.5524 25.7348 55.7149 25.945C55.8775 26.1552 56.1064 26.3031 56.3638 26.3641C56.9244 26.5765 57.2953 26.602 57.7631 26.1941C57.892 26.0749 58.0434 25.9833 58.2084 25.9247C58.3733 25.8661 58.5484 25.8418 58.7229 25.8533C58.8974 25.8649 59.0678 25.9119 59.2238 25.9917C59.3798 26.0714 59.5181 26.1822 59.6304 26.3174C59.9929 26.6742 60.3511 27.0353 60.7052 27.4007C60.8375 27.5115 60.9459 27.6483 61.024 27.8028C61.102 27.9572 61.1479 28.1261 61.159 28.2991C61.17 28.4721 61.146 28.6456 61.0882 28.8088C61.0305 28.9721 60.9403 29.1218 60.8232 29.2488C60.6304 29.4299 60.508 29.6744 60.4778 29.9384C60.4477 30.2023 60.5119 30.4684 60.6588 30.689C60.8865 31.1393 61.0087 31.5387 61.6283 31.5387C61.94 31.5406 62.2424 31.6462 62.4886 31.839C62.7347 32.0318 62.9109 32.3011 62.9897 32.6051L63.0024 34.8312ZM48.0939 39.8741C48.292 39.7254 48.4733 39.598 48.6461 39.4493C48.8686 39.2477 49.1502 39.1246 49.4483 39.0985C49.7463 39.0725 50.0447 39.1449 50.2984 39.3048C50.5406 39.4558 50.8013 39.5744 51.0739 39.6574C52.1066 39.8911 52.722 40.4519 52.7262 41.5777C52.7393 41.6298 52.7657 41.6775 52.8026 41.7163C52.8396 41.755 52.8859 41.7834 52.937 41.7987C53.2657 41.8242 53.5987 41.7987 53.9401 41.7987C53.9781 41.5353 54.0076 41.3143 54.0371 41.0934C54.0606 40.8119 54.1665 40.5437 54.3413 40.3229C54.5161 40.1021 54.7521 39.9385 55.0192 39.8529C55.5165 39.6702 56.0055 39.462 56.486 39.2411C56.7168 39.1188 56.9774 39.0654 57.2372 39.0873C57.497 39.1091 57.7453 39.2052 57.9528 39.3643C58.172 39.5215 58.3743 39.6829 58.5893 39.8359L59.4323 38.9862L59.0108 38.4254C58.8244 38.1988 58.7118 37.9197 58.6884 37.6263C58.665 37.3328 58.732 37.0392 58.8801 36.7855C59.0922 36.339 59.2793 35.8808 59.4407 35.4133C59.5119 35.1601 59.6546 34.9334 59.8514 34.7606C60.0483 34.5879 60.2907 34.4766 60.5493 34.4404L61.3585 34.3087V33.1191L60.7305 33.0299C60.4471 33.0125 60.1754 32.9103 59.95 32.7362C59.7247 32.5621 59.5562 32.3241 59.466 32.0528C59.2763 31.5429 59.0698 31.0374 58.8464 30.5403C58.7305 30.3122 58.6805 30.0558 58.7021 29.8004C58.7237 29.545 58.816 29.3009 58.9686 29.0958C59.1204 28.8707 59.289 28.671 59.4365 28.4628L58.5935 27.6131C58.4291 27.7363 58.2563 27.8596 58.0961 27.9913C57.8622 28.1988 57.5679 28.3246 57.2572 28.3498C56.9466 28.3751 56.6361 28.2985 56.3722 28.1314C55.9791 27.9221 55.5669 27.7514 55.1414 27.6216C54.846 27.5462 54.5818 27.3787 54.3865 27.1429C54.1912 26.9072 54.0748 26.6153 54.0539 26.3089C54.0244 26.0922 53.9907 25.884 53.9612 25.6716H52.7684C52.7389 25.8925 52.7094 26.0964 52.6883 26.2834C52.6698 26.603 52.5488 26.908 52.3436 27.1524C52.1383 27.3968 51.8599 27.5674 51.5502 27.6386C51.1366 27.766 50.7358 27.9324 50.3532 28.1357C50.0946 28.2968 49.7919 28.3709 49.4888 28.3472C49.1858 28.3235 48.898 28.2033 48.6672 28.004C48.4859 27.8638 48.2962 27.7278 48.1656 27.6301L47.2762 28.4416C47.4532 28.6795 47.6218 28.8919 47.7778 29.1171C47.9241 29.3186 48.0125 29.5568 48.0333 29.8056C48.0541 30.0544 48.0066 30.3042 47.8958 30.5276C47.664 31.0501 47.449 31.5769 47.2425 32.108C47.168 32.3335 47.0342 32.5345 46.8553 32.6894C46.6764 32.8442 46.4591 32.9472 46.2267 32.9874C45.9401 33.0469 45.6492 33.0894 45.3415 33.1446V33.6162C45.3415 34.3044 45.3415 34.3172 46.0117 34.4149C46.2963 34.4383 46.5678 34.5453 46.7926 34.7228C47.0174 34.9003 47.1856 35.1404 47.2762 35.4133C47.4575 35.9146 47.664 36.4074 47.8832 36.8917C48.003 37.1245 48.0543 37.3869 48.0312 37.648C48.008 37.9092 47.9113 38.1583 47.7525 38.3659C47.5966 38.5869 47.4364 38.7908 47.2762 39.0202L48.0939 39.8741Z" fill="#141527"/>
<path d="M31.7946 49.5559C31.7963 48.3995 32.1382 47.2696 32.777 46.3091C33.4159 45.3486 34.323 44.6007 35.3837 44.1599C36.4444 43.7191 37.6109 43.6053 38.7358 43.8329C39.8606 44.0604 40.8932 44.6191 41.703 45.4383C42.5128 46.2575 43.0633 47.3003 43.285 48.4349C43.5067 49.5695 43.3895 50.7449 42.9484 51.8123C42.5072 52.8798 41.7618 53.7914 40.8066 54.4319C39.8513 55.0723 38.7291 55.4128 37.5818 55.4103C36.0443 55.4069 34.5711 54.7883 33.4859 53.6906C32.4007 52.5928 31.7924 51.1056 31.7946 49.5559ZM33.4806 49.4837C33.462 50.2981 33.6827 51.0998 34.1151 51.788C34.5474 52.4763 35.1721 53.0202 35.9104 53.3515C36.6488 53.6827 37.4678 53.7865 38.2645 53.6497C39.0612 53.5129 39.8 53.1417 40.3878 52.5827C40.9757 52.0237 41.3865 51.302 41.5684 50.5083C41.7503 49.7146 41.6952 48.8844 41.4101 48.1222C41.125 47.36 40.6227 46.6998 39.9662 46.2246C39.3098 45.7495 38.5286 45.4806 37.7209 45.4519C37.1803 45.4355 36.6419 45.5269 36.1364 45.7209C35.631 45.9149 35.1686 46.2076 34.7758 46.5822C34.3829 46.9569 34.0674 47.4061 33.8473 47.904C33.6272 48.4019 33.5069 48.9388 33.4932 49.4837H33.4806Z" fill="#141527"/>
<path d="M53.3628 37.1765C52.6846 37.179 52.0209 36.9788 51.4555 36.6013C50.89 36.2238 50.4483 35.6858 50.1861 35.0553C49.9239 34.4249 49.8529 33.7303 49.9821 33.0592C50.1114 32.3881 50.4351 31.7707 50.9123 31.285C51.3895 30.7992 51.9989 30.4669 52.6634 30.3301C53.3279 30.1932 54.0177 30.2579 54.6457 30.5161C55.2737 30.7742 55.8118 31.2141 56.1919 31.7802C56.572 32.3464 56.777 33.0134 56.7812 33.697C56.784 34.1519 56.6977 34.6028 56.5273 35.024C56.3569 35.4452 56.1058 35.8284 55.7882 36.1516C55.4707 36.4748 55.093 36.7317 54.6768 36.9075C54.2606 37.0834 53.8141 37.1748 53.3628 37.1765ZM53.3207 35.647C53.6991 35.652 54.0705 35.5438 54.3879 35.3361C54.7054 35.1284 54.9545 34.8304 55.104 34.4799C55.2534 34.1295 55.2963 33.7422 55.2274 33.3671C55.1585 32.9921 54.9808 32.646 54.7167 32.3727C54.4527 32.0994 54.1141 31.9112 53.744 31.8319C53.3738 31.7525 52.9886 31.7855 52.637 31.9268C52.2855 32.0681 51.9834 32.3113 51.769 32.6256C51.5545 32.94 51.4374 33.3113 51.4324 33.6928C51.4311 34.2027 51.6281 34.6928 51.9811 35.0581C52.334 35.4234 52.8149 35.6348 53.3207 35.647Z" fill="#141527"/>
<circle cx="14" cy="14" r="14" fill="#4BA7FC"/>
<path d="M10.296 10.694V8.372L15.822 7.184V20H13.302V9.92L10.296 10.694Z" fill="white"/>
</svg>
