<svg width="80" height="79" viewBox="0 0 80 79" fill="none" xmlns="http://www.w3.org/2000/svg">
<circle cx="44.5" cy="43.5" r="35.5" fill="white"/>
<circle cx="14" cy="14" r="14" fill="#4BA7FC"/>
<path d="M8.288 17.678L15.488 7.4H17.27V15.464H19.25V17.678H17.27V20H14.588V17.678H8.288ZM11.852 15.752H14.84V11.504L11.852 15.752Z" fill="white"/>
<path d="M43.6829 62.0833L41.5095 61.4456C41.3844 61.4009 41.2646 61.3423 41.1524 61.2708C38.2137 59.5293 35.2734 57.7843 32.3314 56.036C31.2883 55.4597 30.4248 54.6024 29.8374 53.5599C29.2499 52.5174 28.9617 51.3308 29.005 50.1327C29.005 43.8386 29.005 37.5462 29.005 31.2555C28.9693 30.7175 29.1263 30.1845 29.4474 29.7533C29.7685 29.322 30.2324 29.0212 30.7549 28.9055C35.1084 27.6199 39.4603 26.3412 43.8104 25.0694C44.1547 24.9769 44.5171 24.9769 44.8614 25.0694C49.2183 26.3344 53.5702 27.613 57.9169 28.9055C58.4399 29.0202 58.9045 29.3208 59.2257 29.7523C59.547 30.1837 59.7036 30.7173 59.6669 31.2555C59.6669 37.5444 59.6669 43.8386 59.6669 50.1327C59.7061 51.3298 59.4137 52.5142 58.8226 53.5533C58.2315 54.5923 57.3649 55.4449 56.3201 56.0154C53.3814 57.7706 50.4411 59.5138 47.499 61.2451C46.8095 61.6379 46.0504 61.8912 45.2644 61.9907C45.1713 62.0092 45.0793 62.0333 44.9889 62.0627L43.6829 62.0833ZM57.4884 41.0463C57.4884 37.8581 57.4884 34.6699 57.4884 31.4817C57.4884 31.1835 57.417 31.0446 57.1108 30.9675C52.9529 29.7539 48.8 28.5249 44.642 27.3114C44.4269 27.2498 44.199 27.2498 43.9839 27.3114C39.8361 28.5198 35.6934 29.7437 31.5457 30.9521C31.4166 30.9737 31.3007 31.0444 31.2219 31.1497C31.143 31.2549 31.1074 31.3867 31.1222 31.5177C31.1222 37.6336 31.1222 43.7443 31.1222 49.8499C31.1222 50.0915 31.1222 50.3332 31.1222 50.5749C31.1469 51.2787 31.3468 51.965 31.7034 52.5706C32.0599 53.1762 32.5619 53.6818 33.163 54.0408C36.1526 55.844 39.1559 57.6215 42.1727 59.3733C42.8064 59.7557 43.531 59.9577 44.2696 59.9577C45.0081 59.9577 45.7328 59.7557 46.3664 59.3733C49.3969 57.6249 52.4087 55.8406 55.4017 54.0202C56.01 53.6783 56.5172 53.1796 56.8714 52.5751C57.2255 51.9706 57.4138 51.282 57.4169 50.58C57.5241 47.397 57.4884 44.2242 57.4884 41.0463Z" fill="#141527"/>
<path d="M44.3409 33.467C46.1685 33.4681 47.9548 34.0153 49.4737 35.0397C50.9927 36.064 52.1761 37.5194 52.8743 39.2218C53.5726 40.9241 53.7542 42.797 53.3963 44.6034C53.0384 46.4098 52.157 48.0686 50.8636 49.3701C49.5703 50.6716 47.923 51.5572 46.1302 51.915C44.3374 52.2727 42.4796 52.0865 40.7918 51.3799C39.104 50.6734 37.662 49.4781 36.6483 47.9454C35.6345 46.4128 35.0944 44.6114 35.0964 42.7694C35.1059 40.3025 36.0834 37.9396 37.8154 36.1967C39.5475 34.4538 41.8934 33.4725 44.3409 33.467ZM51.4069 42.7591C51.4029 41.3473 50.9832 39.9686 50.2012 38.7975C49.4191 37.6263 48.3099 36.7154 47.0138 36.1801C45.7178 35.6448 44.2933 35.5092 42.9208 35.7905C41.5483 36.0718 40.2894 36.7573 39.3037 37.7602C38.318 38.7631 37.6497 40.0384 37.3835 41.4244C37.1173 42.8103 37.2652 44.2448 37.8084 45.546C38.3516 46.8472 39.2657 47.9567 40.435 48.7339C41.6042 49.5111 42.976 49.9211 44.3766 49.912C46.2477 49.8957 48.0365 49.1347 49.3534 47.7949C50.6702 46.4551 51.4084 44.645 51.4069 42.7591Z" fill="#141527"/>
<path d="M43.1117 43.335C44.3055 42.219 45.4687 41.1391 46.6217 40.0541C46.741 39.9181 46.8892 39.811 47.0553 39.7406C47.2213 39.6703 47.401 39.6386 47.5808 39.6478C47.7805 39.6573 47.973 39.7258 48.1345 39.8446C48.2959 39.9635 48.4192 40.1275 48.4889 40.3163C48.5722 40.5057 48.5968 40.716 48.5594 40.9197C48.5221 41.1234 48.4247 41.311 48.2798 41.458C48.0349 41.7202 47.7696 41.9722 47.4992 42.2036L43.9688 45.505C43.862 45.6421 43.7251 45.7522 43.5688 45.8267C43.4125 45.9011 43.2411 45.9378 43.0683 45.9338C42.8954 45.9298 42.7259 45.8852 42.5731 45.8037C42.4204 45.7221 42.2886 45.6058 42.1882 45.4639C41.6015 44.8777 41.0148 44.2914 40.4383 43.6949C40.2919 43.5564 40.1869 43.3794 40.1351 43.1838C40.0833 42.9883 40.0868 42.782 40.1451 42.5884C40.2035 42.3947 40.3145 42.2214 40.4654 42.088C40.6164 41.9546 40.8014 41.8664 40.9995 41.8333C41.1776 41.8014 41.3609 41.8163 41.5316 41.8767C41.7023 41.937 41.8547 42.0408 41.9739 42.1779L43.1117 43.335Z" fill="#141527"/>
</svg>
